<svg width="12" height="10" viewBox="0 0 12 10" fill="none" xmlns="http://www.w3.org/2000/svg">
<path d="M0.9 4.25C0.402944 4.25 0 4.58579 0 5C0 5.41421 0.402944 5.75 0.9 5.75H11.1C11.5971 5.75 12 5.41421 12 5C12 4.58579 11.5971 4.25 11.1 4.25H0.9Z" fill="#652480"/>
<path d="M0.9 8.25C0.402944 8.25 0 8.58579 0 9C0 9.41421 0.402944 9.75 0.9 9.75H11.1C11.5971 9.75 12 9.41421 12 9C12 8.58579 11.5971 8.25 11.1 8.25H0.9Z" fill="#652480"/>
<path d="M0.9 0.25C0.402944 0.25 0 0.585786 0 1C0 1.41421 0.402944 1.75 0.9 1.75H11.1C11.5971 1.75 12 1.41421 12 1C12 0.585786 11.5971 0.25 11.1 0.25H0.9Z" fill="#652480"/>
</svg>
