<svg width="13" height="16" viewBox="0 0 13 16" fill="none" xmlns="http://www.w3.org/2000/svg">
<path fill-rule="evenodd" clip-rule="evenodd" d="M0.25 1.25C0.25 0.835786 0.585786 0.5 1 0.5H11.3988C11.6838 0.500107 11.9631 0.581416 12.2036 0.734408C12.4441 0.887399 12.636 1.10574 12.7569 1.36386C12.8778 1.62198 12.9226 1.90919 12.8861 2.19188C12.8497 2.47456 12.7334 2.741 12.551 2.96L10.2262 5.75L12.5509 8.53989C12.7333 8.75889 12.8497 9.02544 12.8861 9.30812C12.9226 9.59081 12.8778 9.87803 12.7569 10.1361C12.636 10.3943 12.4441 10.6126 12.2036 10.7656C11.9631 10.9186 11.6841 10.9999 11.399 11H1.75V14.75C1.75 15.1642 1.41421 15.5 1 15.5C0.585786 15.5 0.25 15.1642 0.25 14.75V1.25ZM1.75 9.5H11.3985L8.67381 6.23011C8.44206 5.95199 8.44206 5.54801 8.67381 5.26989L11.3985 2L1.75 2V9.5Z" fill="#5C5C5C"/>
</svg>
