<svg width="16" height="16" viewBox="0 0 16 16" fill="none" xmlns="http://www.w3.org/2000/svg">
<path fill-rule="evenodd" clip-rule="evenodd" d="M15.3333 11.3332C15.3333 11.7332 15.0667 11.9998 14.6667 11.9998H1.33333C0.933331 11.9998 0.666664 11.7332 0.666664 11.3332C0.666664 10.9332 0.933331 10.6665 1.33333 10.6665C2.06666 10.6665 2.66666 10.0665 2.66666 9.33317V5.99984C2.66666 3.0665 5.06666 0.666504 8 0.666504C10.9333 0.666504 13.3333 3.0665 13.3333 5.99984V9.33317C13.3333 10.0665 13.9333 10.6665 14.6667 10.6665C15.0667 10.6665 15.3333 10.9332 15.3333 11.3332ZM9.73333 14.3332C9.33333 14.9999 8.66666 15.3332 8 15.3332C7.66666 15.3332 7.33333 15.2665 7 15.0665C6.66666 14.8665 6.46666 14.6665 6.26666 14.3332C6.06666 13.9999 6.2 13.5999 6.53333 13.3999C6.86666 13.1999 7.26666 13.3332 7.46666 13.6665C7.48685 13.6867 7.50703 13.713 7.52907 13.7417C7.57981 13.8078 7.64037 13.8867 7.73333 13.9332C8.06666 14.1332 8.46666 13.9999 8.66666 13.6665C8.86666 13.3332 9.26666 13.2665 9.6 13.3999C9.93333 13.5332 9.93333 13.9999 9.73333 14.3332ZM12 9.33317C12 9.79984 12.1333 10.2665 12.3333 10.6665H3.66666C3.86666 10.2665 4 9.79984 4 9.33317V5.99984C4 3.79984 5.8 1.99984 8 1.99984C10.2 1.99984 12 3.79984 12 5.99984V9.33317Z" fill="#9756B2"/>
</svg>
