<svg width="14" height="15" viewBox="0 0 14 15" fill="none" xmlns="http://www.w3.org/2000/svg">
<path d="M7 5.50011C6.33696 5.50011 5.70108 5.7635 5.23223 6.23234C4.76339 6.70118 4.5 7.33706 4.5 8.00011C4.5 8.66315 4.76339 9.29903 5.23223 9.76787C5.70108 10.2367 6.33696 10.5001 7 10.5001C7.66304 10.5001 8.29893 10.2367 8.76777 9.76787C9.23661 9.29903 9.5 8.66315 9.5 8.00011C9.5 7.33706 9.23661 6.70118 8.76777 6.23234C8.29893 5.7635 7.66304 5.50011 7 5.50011ZM5.5 8.00011C5.5 7.60228 5.65804 7.22075 5.93934 6.93945C6.22065 6.65814 6.60218 6.50011 7 6.50011C7.39783 6.50011 7.77936 6.65814 8.06066 6.93945C8.34197 7.22075 8.5 7.60228 8.5 8.00011C8.5 8.39793 8.34197 8.77946 8.06066 9.06077C7.77936 9.34207 7.39783 9.50011 7 9.50011C6.60218 9.50011 6.22065 9.34207 5.93934 9.06077C5.65804 8.77946 5.5 8.39793 5.5 8.00011ZM5.42 14.8141C5.9375 14.9376 6.468 15.0001 7 15.0001C7.53151 14.9993 8.0611 14.9364 8.578 14.8126C8.72652 14.7776 8.86057 14.6975 8.96173 14.5833C9.06289 14.469 9.12622 14.3263 9.143 14.1746L9.26 13.1096C9.27122 12.9934 9.30994 12.8815 9.37297 12.7832C9.43599 12.6849 9.52152 12.6031 9.62246 12.5444C9.72341 12.4857 9.83687 12.4519 9.95347 12.4458C10.0701 12.4396 10.1865 12.4613 10.293 12.5091L11.2705 12.9376C11.4104 12.9992 11.5661 13.0157 11.7158 12.9848C11.8655 12.9538 12.0019 12.8771 12.106 12.7651C12.8283 11.9869 13.3674 11.057 13.684 10.0436C13.7294 9.89702 13.728 9.73994 13.6801 9.59416C13.6322 9.44838 13.54 9.32115 13.4165 9.23011L12.552 8.59261C12.4576 8.5238 12.3808 8.43362 12.3279 8.32945C12.275 8.22527 12.2475 8.11006 12.2476 7.99322C12.2478 7.87639 12.2755 7.76124 12.3287 7.6572C12.3819 7.55316 12.4589 7.46318 12.5535 7.39461L13.4135 6.75911C13.5377 6.6683 13.6304 6.54087 13.6786 6.39471C13.7267 6.24855 13.7279 6.09098 13.682 5.94411C13.3659 4.93048 12.8265 4.00066 12.1035 3.22311C11.999 3.11133 11.8623 3.03471 11.7124 3.00382C11.5625 2.97293 11.4067 2.98927 11.2665 3.05061L10.2935 3.47861C10.1869 3.52509 10.0708 3.54584 9.95462 3.53915C9.83847 3.53247 9.72553 3.49856 9.62492 3.44015C9.5243 3.38173 9.43885 3.30047 9.37545 3.20292C9.31206 3.10537 9.27251 2.99427 9.26 2.87861L9.142 1.81861C9.1255 1.66513 9.0613 1.5207 8.95842 1.40562C8.85554 1.29055 8.71917 1.21063 8.5685 1.17711C8.05507 1.06238 7.53106 1.00155 7.005 0.995605C6.47582 1.00187 5.9487 1.06269 5.432 1.17711C5.28131 1.21005 5.14482 1.28961 5.04189 1.40448C4.93895 1.51935 4.87479 1.66372 4.8585 1.81711L4.74 2.87811C4.72706 2.99394 4.68717 3.10514 4.62352 3.2028C4.55988 3.30045 4.47425 3.38184 4.3735 3.44045C4.27275 3.49907 4.15968 3.53327 4.04333 3.54033C3.92698 3.54739 3.8106 3.52711 3.7035 3.48111L2.7305 3.05261C2.59011 2.99298 2.43482 2.97778 2.28554 3.00907C2.13625 3.04036 2.00013 3.11662 1.8955 3.22761C1.17232 4.00606 0.632466 4.93645 0.315501 5.95061C0.270388 6.09711 0.271948 6.25401 0.319965 6.39958C0.367982 6.54516 0.46008 6.6722 0.583501 6.76311L1.446 7.39911C1.53996 7.46824 1.61634 7.5585 1.66898 7.66259C1.72162 7.76669 1.74905 7.88171 1.74905 7.99836C1.74905 8.11501 1.72162 8.23002 1.66898 8.33412C1.61634 8.43821 1.53996 8.52847 1.446 8.59761L0.583501 9.23511C0.459713 9.32616 0.367413 9.45357 0.319463 9.59957C0.271514 9.74557 0.270304 9.90289 0.316001 10.0496C0.63282 11.0644 1.17267 11.9955 1.896 12.7746C1.96477 12.8485 2.04814 12.9074 2.14084 12.9474C2.23353 12.9874 2.33353 13.0078 2.4345 13.0071C2.536 13.0071 2.6365 12.9866 2.73 12.9461L3.7075 12.5166C3.81412 12.4705 3.93006 12.4501 4.04599 12.457C4.16193 12.4639 4.27464 12.4979 4.37506 12.5562C4.47548 12.6146 4.56081 12.6957 4.62419 12.793C4.68757 12.8903 4.72724 13.0012 4.74 13.1166L4.8575 14.1796C4.87466 14.3304 4.93788 14.4722 5.03853 14.5857C5.13918 14.6992 5.27239 14.779 5.42 14.8141ZM8.1705 13.8811C7.39903 14.0393 6.60347 14.0393 5.832 13.8811L5.7345 13.0111C5.68684 12.5855 5.48389 12.1924 5.1645 11.9071C4.91447 11.6869 4.60725 11.5418 4.27831 11.4888C3.94937 11.4357 3.61212 11.4767 3.3055 11.6071L2.5025 11.9571C1.9845 11.3639 1.58587 10.6764 1.3285 9.93211L2.0405 9.40611C2.26047 9.24402 2.43928 9.03251 2.56251 8.78864C2.68574 8.54476 2.74994 8.27534 2.74994 8.00211C2.74994 7.72887 2.68574 7.45945 2.56251 7.21558C2.43928 6.9717 2.26047 6.76019 2.0405 6.59811L1.33 6.07361C1.58767 5.33008 1.98628 4.64321 2.504 4.05061L3.304 4.40061C3.5245 4.49797 3.76296 4.54805 4.004 4.54761C4.43325 4.54626 4.84702 4.3872 5.16664 4.10068C5.48626 3.81415 5.68943 3.42015 5.7375 2.99361L5.8345 2.12011C6.2215 2.04511 6.6145 2.00511 7.008 2.00011C7.399 2.00511 7.789 2.04511 8.173 2.11961L8.266 2.98961C8.3122 3.4166 8.51469 3.81143 8.8345 4.09811C9.08472 4.31964 9.39276 4.46547 9.72271 4.51858C10.0527 4.5717 10.3909 4.52992 10.698 4.39811L11.498 4.04811C12.0165 4.64055 12.4154 5.32766 12.673 6.07161L11.9615 6.59461C11.7403 6.75607 11.5604 6.96747 11.4363 7.21162C11.3123 7.45576 11.2476 7.72575 11.2476 7.99961C11.2476 8.27346 11.3123 8.54345 11.4363 8.78759C11.5604 9.03174 11.7403 9.24314 11.9615 9.40461L12.6725 9.92911C12.4148 10.672 12.0168 11.3585 11.5 11.9511L10.7 11.6011C10.4497 11.4897 10.1766 11.4391 9.90298 11.4535C9.62938 11.4678 9.36306 11.5467 9.12578 11.6837C8.8885 11.8207 8.687 12.0118 8.53774 12.2416C8.38849 12.4713 8.29571 12.7331 8.267 13.0056L8.1705 13.8811Z" fill="#FFEC00"/>
</svg>
