<svg width="22" height="22" viewBox="0 0 22 22" fill="none" xmlns="http://www.w3.org/2000/svg">
<path d="M11 21.5H15.2C15.7799 21.5 16.25 21.0299 16.25 20.45C16.25 19.8701 15.7799 19.4 15.2 19.4H11C6.443 19.4 2.6 15.557 2.6 11C2.6 6.443 6.443 2.6 11 2.6C15.557 2.6 19.4 6.443 19.4 11V12.5015C19.4 13.331 18.6545 14.15 17.825 14.15C16.9955 14.15 16.25 13.331 16.25 12.5015V11C16.25 8.102 13.898 5.75 11 5.75C8.102 5.75 5.75 8.102 5.75 11C5.75 13.898 8.102 16.25 11 16.25C12.449 16.25 13.772 15.662 14.717 14.7065C15.3995 15.641 16.5755 16.25 17.825 16.25C19.8935 16.25 21.5 14.57 21.5 12.5015V11C21.5 5.204 16.796 0.5 11 0.5C5.204 0.5 0.5 5.204 0.5 11C0.5 16.796 5.204 21.5 11 21.5ZM11 14.15C9.257 14.15 7.85 12.743 7.85 11C7.85 9.257 9.257 7.85 11 7.85C12.743 7.85 14.15 9.257 14.15 11C14.15 12.743 12.743 14.15 11 14.15Z"/>
</svg>
