<svg width="24" height="24" viewBox="0 0 24 24" fill="none" xmlns="http://www.w3.org/2000/svg">
<path fill-rule="evenodd" clip-rule="evenodd" d="M19 3H17V2C17 1.4 16.6 1 16 1C15.4 1 15 1.4 15 2V3H9V2C9 1.4 8.6 1 8 1C7.4 1 7 1.4 7 2V3H5C3.3 3 2 4.30001 2 6.00001V20C2 21.7 3.3 23 5 23H19C20.7 23 22 21.7 22 20V6.00001C22 4.30001 20.7 3 19 3ZM5 5.00001H7V6.00001C7 6.60001 7.4 7.00001 8 7.00001C8.6 7.00001 9 6.60001 9 6.00001V5.00001H15V6.00001C15 6.60001 15.4 7.00001 16 7.00001C16.6 7.00001 17 6.60001 17 6.00001V5.00001H19C19.6 5.00001 20 5.40001 20 6.00001V9.00001H4V6.00001C4 5.40001 4.4 5.00001 5 5.00001ZM5 21H19C19.6 21 20 20.6 20 20V11H4V20C4 20.6 4.4 21 5 21Z"/>
</svg>
