<svg width="24" height="24" viewBox="0 0 24 24" fill="none" xmlns="http://www.w3.org/2000/svg">
<path fill-rule="evenodd" clip-rule="evenodd" d="M8.02538 11.0001C8.02538 10.4617 8.4619 10.0251 9.00038 10.0251H15.0004C15.5389 10.0251 15.9754 10.4617 15.9754 11.0001C15.9754 11.5386 15.5389 11.9751 15.0004 11.9751H9.00038C8.4619 11.9751 8.02538 11.5386 8.02538 11.0001Z" fill="#2C6A69"/>
<path fill-rule="evenodd" clip-rule="evenodd" d="M18.5194 2.18035C17.3651 2.0251 15.8967 2.02512 14.0719 2.02515H9.92884C8.10412 2.02512 6.63573 2.0251 5.48143 2.18035C4.28421 2.34137 3.27985 2.68533 2.483 3.48268C1.68559 4.27955 1.34162 5.28393 1.18059 6.48118C1.02534 7.63548 1.02537 9.10388 1.02539 10.9286V11.0717C1.02537 12.8964 1.02534 14.3648 1.18059 15.5191C1.34158 16.7161 1.68543 17.7203 2.48244 18.517C3.24796 19.2837 4.20481 19.6315 5.34013 19.7998C5.33284 19.9938 5.33066 20.1738 5.3351 20.339C5.34993 20.8911 5.43463 21.7153 6.12613 22.1791C6.4933 22.4261 6.89538 22.4668 7.23372 22.4349C7.55923 22.4042 7.89 22.3012 8.20327 22.1795C8.81299 21.9425 9.59891 21.5346 10.5484 21.0417L10.6085 21.0105C11.803 20.3907 12.9979 19.9751 14.0004 19.9751H14.072C15.8967 19.9752 17.3651 19.9752 18.5194 19.8199C19.7166 19.6589 20.721 19.315 21.5178 18.5176C22.3152 17.7207 22.6592 16.7163 22.8202 15.5191C22.9754 14.3648 22.9754 12.8964 22.9754 11.0717V10.9286C22.9754 9.10389 22.9754 7.63549 22.8202 6.48118C22.6591 5.2838 22.3151 4.27933 21.5175 3.48242C20.7207 2.68525 19.7164 2.34135 18.5194 2.18035ZM14.0004 18.0251C15.9135 18.0251 17.2503 18.0231 18.2594 17.8873C19.2405 17.7554 19.7646 17.5134 20.1387 17.139C20.5131 16.7649 20.7556 16.2403 20.8876 15.2592C21.0233 14.25 21.0254 12.9132 21.0254 11.0001C21.0254 9.08707 21.0233 7.75026 20.8876 6.74111C20.7556 5.75999 20.5137 5.23596 20.1393 4.86187C19.7652 4.48746 19.2405 4.2449 18.2594 4.11295C17.2503 3.97722 15.9135 3.97515 14.0004 3.97515H10.0004C8.08732 3.97515 6.75051 3.97722 5.74136 4.11295C4.76024 4.2449 4.23621 4.48687 3.86212 4.86128C3.4877 5.23537 3.24515 5.75999 3.11319 6.74111C2.97746 7.75026 2.97539 9.08707 2.97539 11.0001C2.97539 12.9132 2.97746 14.25 3.11319 15.2592C3.24515 16.2403 3.48712 16.7643 3.86153 17.1384C4.20218 17.4796 4.66758 17.7113 5.48995 17.8493L5.52931 17.4126C5.57765 16.8763 6.05159 16.4808 6.58789 16.5291C7.1242 16.5774 7.51977 17.0514 7.47144 17.5877L7.42944 18.0537C7.33348 19.1051 7.27145 19.8048 7.2844 20.2866C7.28592 20.3433 7.28847 20.3926 7.29161 20.4354C7.3494 20.4168 7.41743 20.3928 7.49697 20.3619C7.99645 20.1678 8.68873 19.81 9.71022 19.2798C11.0017 18.6096 12.5309 18.0251 14.0004 18.0251Z" fill="#2C6A69"/>
</svg>
