<svg width="16" height="13" viewBox="0 0 16 13" fill="none" xmlns="http://www.w3.org/2000/svg">
<path fill-rule="evenodd" clip-rule="evenodd" d="M7.25 1.75C7.05109 1.75 6.86032 1.82902 6.71967 1.96967C6.57902 2.11032 6.5 2.30109 6.5 2.5H9.5C9.5 2.30109 9.42098 2.11032 9.28033 1.96967C9.13968 1.82902 8.94891 1.75 8.75 1.75H7.25ZM5.65901 0.90901C6.08097 0.487053 6.65326 0.25 7.25 0.25H8.75C9.34674 0.25 9.91903 0.487053 10.341 0.90901C10.7629 1.33097 11 1.90326 11 2.5H13.25C14.4926 2.5 15.5 3.50736 15.5 4.75V10.75C15.5 11.9926 14.4926 13 13.25 13H2.75C1.50736 13 0.5 11.9926 0.5 10.75V4.75C0.5 3.50736 1.50736 2.5 2.75 2.5H5C5 1.90326 5.23705 1.33097 5.65901 0.90901ZM2.75 4C2.33579 4 2 4.33579 2 4.75V10.75C2 11.1642 2.33579 11.5 2.75 11.5H13.25C13.6642 11.5 14 11.1642 14 10.75V4.75C14 4.33579 13.6642 4 13.25 4H2.75ZM5.82981 6.66332C6.01576 6.29319 6.46654 6.14387 6.83668 6.32982L6.99369 6.40869C6.9939 6.4088 6.99348 6.40859 6.99369 6.40869C7.30597 6.56472 7.6509 6.64627 8 6.64627C8.3491 6.64627 8.6934 6.56504 9.00568 6.40901C9.00589 6.4089 9.00547 6.40912 9.00568 6.40901L9.16332 6.32982C9.53345 6.14387 9.98424 6.29319 10.1702 6.66332C10.3561 7.03345 10.2068 7.48424 9.83668 7.67018L9.67843 7.74968L9.67719 7.75031C9.15644 8.0107 8.58222 8.14627 8 8.14627C7.41778 8.14627 6.84356 8.0107 6.32281 7.75031L6.32157 7.74968L6.16332 7.67018C5.79319 7.48424 5.64387 7.03345 5.82981 6.66332Z" fill="#5C5C5C"/>
</svg>
