<svg width="22" height="22" viewBox="0 0 22 22" fill="none" xmlns="http://www.w3.org/2000/svg">
<path fill-rule="evenodd" clip-rule="evenodd" d="M11 22C17.1 22 22 17.1 22 11C22 4.90001 17.1 0 11 0C4.9 0 0 4.90001 0 11C0 17.1 4.9 22 11 22ZM11.2 12.9C11.6 12.8 14.9 11.6 14.9 8.99998C14.9 7.29998 13.8 5.79998 12.2 5.29998C10.1 4.49998 7.8 5.59998 7.1 7.69998C7 8.19998 7.2 8.79998 7.7 8.79998C8.2 8.99998 8.8 8.69998 9 8.19998C9.4 7.19998 10.6 6.59998 11.6 6.99998C12.4 7.29998 12.9 7.99998 12.9 8.89999C12.9 9.99999 11.2 10.8 10.6 11C10.1 11.2 9.8 11.8 10 12.3C10.1 12.7 10.5 13 10.9 13C11 13 11.1 13 11.2 12.9ZM20 11C20 6.00001 16 2 11 2C6 2 2 6.00001 2 11C2 16 6 20 11 20C16 20 20 16 20 11ZM11.5 15.2C11.6 15.2 11.7 15.3 11.7 15.3C11.8 15.4 11.9 15.5 11.8 15.6C11.9 15.7 11.9 15.9 11.9 16C11.9 16.3 11.8 16.5 11.6 16.7C11.4 16.9 11.2 17 10.9 17C10.6 17 10.4 16.9 10.2 16.7C10 16.5 9.9 16.3 9.9 16C9.9 15.8829 9.93431 15.8 9.96274 15.7314C9.98284 15.6829 10 15.6414 10 15.6C10 15.5 10.1 15.4 10.2 15.3C10.3 15.2 10.4 15.1 10.5 15.1C10.7 15 10.9 15 11.1 15C11.1575 15.0575 11.1819 15.082 11.2113 15.0924C11.2331 15.1 11.2575 15.1 11.3 15.1C11.35 15.1 11.375 15.125 11.4 15.15C11.425 15.175 11.45 15.2 11.5 15.2Z" fill="white"/>
</svg>
