<svg width="24" height="24" viewBox="0 0 24 24" fill="none" xmlns="http://www.w3.org/2000/svg">
<path fill-rule="evenodd" clip-rule="evenodd" d="M3.7677 6.56463C5.29409 6.56463 6.53149 5.32724 6.53149 3.80084C6.53149 2.27444 5.29409 1.03705 3.7677 1.03705C2.2413 1.03705 1.00391 2.27444 1.00391 3.80084C1.00391 5.32724 2.2413 6.56463 3.7677 6.56463ZM9.14117 8.65894V23.9924H13.902V16.4097C13.902 14.4088 14.2784 12.4712 16.7593 12.4712C19.206 12.4712 19.2363 14.7587 19.2363 16.536V23.9937H23.9997V15.5848C23.9997 11.4543 23.1104 8.28 18.2826 8.28C15.9647 8.28 14.4111 9.552 13.7757 10.7558H13.7113V8.65894H9.14117ZM1.38285 8.65894H6.15127V23.9924H1.38285V8.65894Z" fill="#652480"/>
</svg>
