<svg width="15" height="13" viewBox="0 0 18 13" fill="none" xmlns="http://www.w3.org/2000/svg">
<path fill-rule="evenodd" clip-rule="evenodd" d="M8.57285 0.552419C8.81195 0.324161 9.18824 0.324161 9.42735 0.552419C10.2475 1.33533 10.8893 2.28572 11.3092 3.33893C11.5794 4.01664 11.7309 4.84311 11.7929 5.63504C13.1586 4.66327 14.8019 4.13123 16.5001 4.13123C16.6642 4.13123 16.8216 4.19641 16.9376 4.31245C17.0537 4.42849 17.1188 4.58587 17.1188 4.74998C17.1188 6.9032 16.2635 8.96824 14.7409 10.4908C13.2184 12.0134 11.1533 12.8687 9.0001 12.8687C6.84687 12.8687 4.78184 12.0134 3.25927 10.4908C1.73671 8.96824 0.881348 6.9032 0.881348 4.74998C0.881348 4.58587 0.946537 4.42849 1.06258 4.31245C1.17861 4.19641 1.33599 4.13123 1.5001 4.13123C2.56627 4.13123 3.622 4.34122 4.60701 4.74923C5.17342 4.98385 5.71008 5.2813 6.20725 5.63508C6.26933 4.84313 6.42083 4.01666 6.69101 3.33893C7.11089 2.28572 7.75273 1.33533 8.57285 0.552419ZM7.41318 6.68674C8.08582 7.40168 8.62371 8.2332 9.0001 9.14126C9.37322 8.24108 9.90835 7.40804 10.587 6.68674C10.6081 5.73427 10.4763 4.59137 10.1597 3.7972C9.88219 3.10119 9.48975 2.45843 9.0001 1.89517C8.51044 2.45843 8.11801 3.10119 7.84053 3.7972C7.52392 4.59137 7.39209 5.73428 7.41318 6.68674ZM8.35063 11.6005C8.28607 10.9196 8.12023 10.2508 7.85754 9.61663C7.51173 8.78176 7.00486 8.02318 6.36588 7.3842C5.72689 6.74521 4.96831 6.23835 4.13344 5.89253C3.49926 5.62985 2.8305 5.464 2.14954 5.39944C2.29992 6.98615 2.99782 8.47926 4.13432 9.61575C5.27082 10.7523 6.76392 11.4502 8.35063 11.6005ZM9.64954 11.6005C11.2363 11.4502 12.7294 10.7523 13.8659 9.61575C15.0024 8.47925 15.7003 6.98614 15.8506 5.39942C14.2639 5.54979 12.7708 6.24769 11.6343 7.3842C10.4978 8.5207 9.79991 10.0138 9.64954 11.6005Z" fill="#5C5C5C"/>
</svg>
