<svg width="12" height="16" viewBox="0 0 12 16" fill="none" xmlns="http://www.w3.org/2000/svg">
<path fill-rule="evenodd" clip-rule="evenodd" d="M2.25 0.6875H9.75C11.025 0.6875 12 1.6625 11.925 2.9375V14.9375C11.925 15.2375 11.775 15.4625 11.55 15.6125C11.4 15.6875 11.325 15.6875 11.175 15.6875C11.025 15.6875 10.875 15.6125 10.725 15.5375L5.925 12.0875L1.125 15.5375C0.9 15.6875 0.6 15.7625 0.375 15.6125C0.15 15.4625 0 15.2375 0 14.9375V2.9375C0 1.6625 0.975 0.6875 2.25 0.6875ZM6.45 10.5875L10.5 13.5125V2.9375C10.5 2.4875 10.2 2.1875 9.75 2.1875H2.25C1.8 2.1875 1.5 2.4875 1.5 2.9375V13.5125L5.55 10.5875C5.7 10.5125 5.85 10.4375 6 10.4375C6.15 10.4375 6.3 10.5125 6.45 10.5875Z" fill="#5C5C5C"/>
</svg>
