<svg width="21" height="22" viewBox="0 0 15 16" fill="none" xmlns="http://www.w3.org/2000/svg">
<path fill-rule="evenodd" clip-rule="evenodd" d="M11.3512 8.90419C11.8869 9.1051 12.4897 9.23905 13.0924 9.30602C14.097 9.43996 14.8337 10.3106 14.8337 11.3151V13.3243C14.8337 13.8601 14.5658 14.3288 14.2309 14.7307C13.8961 15.1325 13.3603 15.3334 12.8245 15.3334H12.6236C10.4805 15.1325 8.33746 14.3958 6.52924 13.1903C4.85497 12.1188 3.3816 10.6454 2.31007 8.97116C1.17156 7.16294 0.367905 5.01987 0.166992 2.87679C0.166992 2.34102 0.300934 1.80526 0.63579 1.40343C0.970645 1.0016 1.43944 0.733719 1.97521 0.666748H2.17612H4.18526C5.18982 0.666748 6.06045 1.40343 6.19439 2.408C6.26136 3.01074 6.3953 3.61348 6.59622 4.14924C6.8641 4.88593 6.66319 5.75655 6.12742 6.29232L5.65862 6.76112C6.46227 8.03357 7.53381 9.03813 8.73929 9.84179L9.20809 9.37299C9.81083 8.83722 10.6145 8.63631 11.3512 8.90419ZM13.4942 13.3243V11.3152C13.4942 10.9803 13.2264 10.7124 12.9585 10.6455L12.9585 10.6455C12.2887 10.5115 11.619 10.3776 10.9493 10.1097C10.6815 9.97576 10.4136 10.0427 10.2127 10.2436L9.34203 11.1143C9.14112 11.3822 8.80626 11.3822 8.53838 11.2482C6.73016 10.2436 5.25679 8.77028 4.25223 6.96206C4.11829 6.69418 4.18526 6.35932 4.38617 6.15841L5.25679 5.35476C5.39074 5.15384 5.45771 4.88596 5.39074 4.61807C5.12285 4.01534 4.92194 3.27865 4.85497 2.60894C4.788 2.27409 4.52011 2.0062 4.18526 2.0062H2.17612C1.97521 2.0062 1.7743 2.14014 1.64036 2.27409C1.57338 2.40803 1.50641 2.54197 1.50641 2.74288C1.70733 4.68505 2.37704 6.56024 3.44858 8.23451C4.45314 9.77485 5.72559 11.1143 7.26593 12.0519C8.9402 13.1234 10.8154 13.7931 12.7576 13.994C13.0254 13.994 13.1594 13.9271 13.2933 13.7931C13.4273 13.6592 13.4942 13.5252 13.4942 13.3243Z" fill="white"/>
</svg>
