<svg width="14" height="14" viewBox="0 0 14 14" fill="none" xmlns="http://www.w3.org/2000/svg">
<path d="M6.15625 6.65625H6.65625V6.15625V1.09375C6.65625 0.903902 6.81015 0.75 7 0.75C7.18985 0.75 7.34375 0.903902 7.34375 1.09375V6.15625V6.65625H7.84375H12.9062C13.0961 6.65625 13.25 6.81015 13.25 7C13.25 7.18985 13.0961 7.34375 12.9062 7.34375H7.84375H7.34375V7.84375V12.9062C7.34375 13.0961 7.18985 13.25 7 13.25C6.81015 13.25 6.65625 13.0961 6.65625 12.9062V7.84375V7.34375H6.15625H1.09375C0.903902 7.34375 0.75 7.18985 0.75 7C0.75 6.81015 0.903902 6.65625 1.09375 6.65625H6.15625Z" fill="#5C5C5C" stroke="#5C5C5C"/>
</svg>
