<svg width="24" height="24" viewBox="0 0 24 24" fill="none" xmlns="http://www.w3.org/2000/svg">
<path fill-rule="evenodd" clip-rule="evenodd" d="M21.1596 7.17362C21.1752 7.38362 21.1752 7.59242 21.1752 7.80122C21.1752 14.1912 16.3116 21.5544 7.4232 21.5544C4.6848 21.5544 2.1408 20.7612 0 19.3836C0.3888 19.428 0.7632 19.4436 1.1676 19.4436C3.4272 19.4436 5.5068 18.6804 7.1688 17.3784C5.0436 17.334 3.2628 15.942 2.6484 14.0268C2.9472 14.0712 3.2472 14.1012 3.5616 14.1012C3.9948 14.1012 4.4304 14.0412 4.8348 13.9368C2.6184 13.488 0.9588 11.5428 0.9588 9.19322V9.13322C1.6032 9.49202 2.3508 9.71642 3.1428 9.74642C1.8408 8.88002 0.9876 7.39802 0.9876 5.72162C0.9876 4.82402 1.2264 4.00082 1.6452 3.28322C4.0248 6.21482 7.602 8.13122 11.6124 8.34122C11.538 7.98122 11.4924 7.60802 11.4924 7.23362C11.4924 4.56962 13.6476 2.40002 16.326 2.40002C17.718 2.40002 18.9744 2.98322 19.8576 3.92642C20.9496 3.71642 21.996 3.31202 22.9248 2.75882C22.566 3.88082 21.8016 4.82402 20.7996 5.42282C21.7728 5.31722 22.716 5.04842 23.5824 4.67402C22.9248 5.63162 22.1028 6.48482 21.1596 7.17362Z" fill="#652480"/>
</svg>
