<svg width="12" height="14" viewBox="0 0 12 14" fill="none" xmlns="http://www.w3.org/2000/svg">
<path fill-rule="evenodd" clip-rule="evenodd" d="M2.66667 3.66683C2.66667 1.80016 4.13333 0.333496 6 0.333496C7.86667 0.333496 9.33333 1.80016 9.33333 3.66683C9.33333 5.53349 7.86667 7.00016 6 7.00016C4.13333 7.00016 2.66667 5.53349 2.66667 3.66683ZM12 11.6668V13.0002C12 13.4002 11.7333 13.6668 11.3333 13.6668C10.9333 13.6668 10.6667 13.4002 10.6667 13.0002V11.6668C10.6667 10.5335 9.8 9.66683 8.66667 9.66683H3.33333C2.2 9.66683 1.33333 10.5335 1.33333 11.6668V13.0002C1.33333 13.4002 1.06667 13.6668 0.666667 13.6668C0.266666 13.6668 0 13.4002 0 13.0002V11.6668C0 9.80016 1.46667 8.33349 3.33333 8.33349H8.66667C10.5333 8.33349 12 9.80016 12 11.6668ZM6 5.66683C4.86667 5.66683 4 4.80016 4 3.66683C4 2.5335 4.86667 1.66683 6 1.66683C7.13333 1.66683 8 2.5335 8 3.66683C8 4.80016 7.13333 5.66683 6 5.66683Z" fill="#652480"/>
</svg>
