<svg width="22" height="22" viewBox="0 0 22 22" fill="none" xmlns="http://www.w3.org/2000/svg">
<path fill-rule="evenodd" clip-rule="evenodd" d="M15.8115 13.0843C15.5495 12.9539 14.2649 12.3257 14.0258 12.2382C13.7866 12.1515 13.6125 12.1087 13.4376 12.3694C13.2635 12.6284 12.7632 13.2147 12.6111 13.3879C12.4581 13.562 12.306 13.583 12.0449 13.4535C11.7838 13.3223 10.9415 13.0484 9.9436 12.1629C9.16726 11.4734 8.64237 10.622 8.49027 10.3613C8.33816 10.1014 8.47356 9.96054 8.60457 9.83104C8.72238 9.71466 8.86569 9.52741 8.99669 9.37604C9.1277 9.22379 9.17078 9.11529 9.25782 8.94116C9.34574 8.76791 9.30178 8.61654 9.23584 8.48616C9.17078 8.35579 8.64853 7.07566 8.43048 6.55504C8.21859 6.04841 8.00319 6.11754 7.84317 6.10879C7.69019 6.10179 7.5161 6.10004 7.34202 6.10004C7.16793 6.10004 6.88483 6.16479 6.64568 6.42554C6.40566 6.68541 5.7313 7.31454 5.7313 8.59466C5.7313 9.87391 6.66679 11.1103 6.79779 11.2844C6.92879 11.4577 8.63973 14.0844 11.2607 15.2105C11.8849 15.4783 12.3711 15.6384 12.75 15.7574C13.376 15.956 13.9458 15.928 14.3959 15.8607C14.8971 15.7863 15.9416 15.2315 16.1596 14.6243C16.3768 14.017 16.3768 13.4964 16.3117 13.3879C16.2467 13.2794 16.0735 13.2147 15.8115 13.0843ZM11.0444 19.5619H11.0409C9.48415 19.5622 7.95603 19.1457 6.61667 18.3562L6.30015 18.1689L3.51312 18.8968C3.28963 18.9552 3.08678 18.7497 3.14807 18.5269L3.88848 15.8362L3.68186 15.5089C2.81157 14.1302 2.351 12.5346 2.35338 10.9064C2.35513 6.13766 6.25356 2.25791 11.0479 2.25791C13.369 2.25791 15.5512 3.15916 17.1918 4.79366C18.001 5.59567 18.6424 6.54941 19.0788 7.5997C19.5153 8.64999 19.7381 9.77598 19.7345 10.9125C19.7327 15.6813 15.8343 19.5619 11.0444 19.5619ZM18.4403 3.55204C17.4716 2.58159 16.319 1.81213 15.0493 1.28824C13.7796 0.764342 12.418 0.496433 11.0435 0.500036C5.28115 0.500036 0.58968 5.16816 0.587921 10.9055C0.587042 12.7395 1.06797 14.5298 1.98323 16.1074L0.729729 20.6648C0.627641 21.036 0.965687 21.3784 1.33815 21.2812L6.04254 20.0528C7.57578 20.8841 9.29395 21.3198 11.04 21.3198H11.0444C16.8067 21.3198 21.4982 16.6517 21.5 10.9134C21.5042 9.54603 21.236 8.19138 20.7108 6.92782C20.1856 5.66426 19.4139 4.51687 18.4403 3.55204Z" fill="white"/>
</svg>
